<svg xmlns="http://www.w3.org/2000/svg" viewBox="0 0 323.806 176.596"><path fill="none" stroke="#000" d="M59.861 51.499V172.29" stroke-linecap="round" stroke-linejoin="round"/><path d="M56.86 171.415l2.992 5.181 2.991-5.181z"/><path fill="none" stroke="#000" d="M125.861 51.499V172.29" stroke-linecap="round" stroke-linejoin="round"/><path d="M122.86 171.415l2.992 5.181 2.991-5.181z"/><path fill="#ccc" d="M61.549 56.478v1.309L40.405 45.674v-1.307z"/><path fill="gray" d="M61.549 56.478l14.731-8.379v1.309l-14.731 8.381z"/><path fill="#fff" d="M40.405 44.369l14.709-8.43 21.166 12.16-14.731 8.379z"/><path fill="#999" d="M78.329 29.092l.988-.563-2.061 18.966-.99.563zm-14.95 24.103v.254L45.506 43.212v-.253z"/><path fill="#b3b3b3" d="M63.379 53.195l10.124-5.759v.254l-10.124 5.761z"/><path fill="#e6e6e6" d="M45.506 42.96l10.108-5.8 17.889 10.276-10.124 5.759zm2.571 5.477l2.902-1.666 5.135 2.95-2.906 1.654zm30.252-19.345l-2.063 18.965-21.144-12.113 2.06-18.964z"/><path fill="#0071bc" d="M75.424 46.602L55.965 35.455l2.061-17.02 19.459 11.146-2.061 17.021z"/><path fill="#b3b3b3" d="M57.182 16.981l.971-.611 21.164 12.159-.988.563z"/><path fill="none" stroke="#000" d="M77.256 47.495l2.061-18.966L58.153 16.37l-.969.61h-.002l-2.06 18.963-.008-.004-14.707 8.429-.002-.001v1.307l21.144 12.113v.002l14.731-8.381v-1.309l-.014-.042v.001z" stroke-linecap="round" stroke-linejoin="round"/><path fill="#b3b3b3" d="M122.49 31.718v29.233l-11.485-7.059V24.653z"/><path fill="#333" d="M120.361 32.636v3.49l-8.19-5.037v-3.492zm0 11.769v3.487l-8.19-5.038v-3.488z"/><path fill="#e6e6e6" d="M120.361 40.019v1.007l-8.19-5.035v-1.013z"/><path fill="#333" d="M120.361 49.36v3.487l-8.19-5.035v-3.491zm0 4.953v3.49l-8.19-5.038v-3.489z"/><path fill="gray" d="M122.484 31.735l18.203-11.482v29.236l-18.203 11.482z"/><path fill="#999" d="M111.031 24.671l18.224-11.482 11.461 7.06-18.205 11.482z"/><path fill="#009245" d="M112.447 31.567c.18.105.318.365.318.582 0 .211-.141.303-.318.191a.744.744 0 0 1-.312-.582c-.001-.216.14-.298.312-.191"/><path fill="#c1272d" d="M113.216 32.042c.178.107.316.369.316.586 0 .211-.146.299-.318.191-.176-.105-.316-.367-.316-.582 0-.216.143-.304.318-.195"/><path fill="#009245" d="M113.984 32.507a.76.76 0 0 1 .316.582c0 .217-.145.303-.318.195-.178-.107-.316-.373-.316-.588 0-.211.14-.297.318-.189"/><path fill="#c1272d" d="M114.749 32.979c.176.107.314.367.314.584-.002.211-.143.299-.32.189-.172-.105-.314-.369-.314-.582 0-.214.145-.302.32-.191m.776.475a.74.74 0 0 1 .316.584c0 .215-.141.303-.318.191a.755.755 0 0 1-.312-.582c-.001-.212.14-.3.314-.193"/><path fill="#009245" d="M116.292 33.933c.178.106.316.367.316.582 0 .215-.141.301-.318.193-.174-.105-.316-.367-.316-.584 0-.213.143-.303.318-.191m.768.461a.75.75 0 0 1 .314.584c0 .219-.143.303-.314.193-.178-.107-.318-.369-.318-.584 0-.213.142-.301.318-.193m.768.474c.172.105.312.365.312.582s-.141.299-.318.191a.742.742 0 0 1-.312-.582c-.001-.216.142-.304.318-.191"/><path fill="#c1272d" d="M112.447 32.702c.18.105.318.369.318.584 0 .213-.141.297-.318.193a.746.746 0 0 1-.312-.586c-.001-.214.14-.298.312-.191m.769.475c.178.109.316.369.316.586 0 .213-.146.303-.318.193-.176-.109-.316-.373-.316-.586 0-.215.143-.299.318-.193"/><path fill="#009245" d="M113.984 33.642c.172.103.316.373.316.582 0 .217-.145.303-.318.197-.178-.109-.316-.371-.316-.588 0-.213.14-.299.318-.191"/><path fill="#c1272d" d="M114.749 34.114c.176.105.314.367.314.584-.002.211-.143.299-.32.193a.774.774 0 0 1-.314-.584c0-.216.145-.304.32-.193"/><path fill="#009245" d="M115.525 34.589a.742.742 0 0 1 .316.582c0 .217-.141.305-.318.197-.172-.107-.312-.371-.312-.584-.001-.215.14-.303.314-.195"/><path fill="#c1272d" d="M116.292 35.063c.178.107.316.375.316.586 0 .217-.141.301-.318.195a.757.757 0 0 1-.316-.584c0-.214.143-.302.318-.197"/><path fill="#009245" d="M117.06 35.528a.763.763 0 0 1 .314.586c0 .217-.143.303-.314.191-.178-.104-.318-.367-.318-.582 0-.214.142-.302.318-.195"/><path fill="#c1272d" d="M117.828 35.999a.766.766 0 0 1 .312.586c0 .217-.141.299-.318.195a.758.758 0 0 1-.312-.584c-.001-.218.142-.3.318-.197"/><path fill="#009245" d="M118.419 40.882c.178.107.32.367.32.586 0 .211-.145.299-.32.193a.762.762 0 0 1-.316-.586c0-.215.141-.301.316-.193m.77.463a.763.763 0 0 1 .312.586c0 .215-.141.299-.312.193a.742.742 0 0 1-.318-.584c0-.215.14-.299.318-.195"/><path fill="#c1272d" d="M119.953 41.817c.176.107.316.367.316.584 0 .211-.141.303-.318.193a.744.744 0 0 1-.314-.584c-.001-.214.142-.304.316-.193m-1.534.202c.178.105.32.367.32.586 0 .213-.145.299-.32.188-.178-.104-.316-.369-.316-.582 0-.214.141-.304.316-.192m.77.462a.772.772 0 0 1 .312.582c0 .217-.141.305-.312.193-.18-.105-.318-.369-.318-.582 0-.216.14-.3.318-.193"/><path fill="#009245" d="M119.953 42.954c.176.103.316.365.316.582 0 .215-.141.303-.318.191a.731.731 0 0 1-.314-.582c-.001-.212.142-.3.316-.191"/><path fill="none" stroke="#000" d="M140.716 20.249l-11.463-7.06-18.222 11.482-.026-.018v29.239l11.479 7.059v.02l18.201-11.482V20.268z" stroke-linecap="round" stroke-linejoin="round"/><path fill="none" stroke="#000" d="M33.155 73.438h92.706m-92.706 52h92.706" stroke-dasharray="1 1"/><path fill="#fddfbb" fill-rule="evenodd" d="M40.286 78.366c0 1.979-1.62 3.6-3.6 3.6H6.98a3.61 3.61 0 0 1-3.6-3.6v-9.857c0-1.98 1.62-3.6 3.6-3.6h29.706c1.98 0 3.6 1.62 3.6 3.6v9.857z" clip-rule="evenodd"/><path fill="none" stroke="#000" d="M40.286 78.366c0 1.979-1.62 3.6-3.6 3.6H6.98a3.61 3.61 0 0 1-3.6-3.6v-9.857c0-1.98 1.62-3.6 3.6-3.6h29.706c1.98 0 3.6 1.62 3.6 3.6v9.857z" stroke-linecap="round" stroke-linejoin="round"/><path d="M54.584 8.25c-.209.11-.549.18-.969.18-1.309 0-2.259-1.049-2.259-3.338 0-2.668 1.319-3.518 2.389-3.518.4 0 .7.08.83.17l-.17.649c-.16-.07-.32-.14-.669-.14-.72 0-1.569.699-1.569 2.758 0 2.069.76 2.738 1.589 2.738.29 0 .54-.069.699-.14l.129.641zm.722-6.796h.77V8.37h-.77V1.454zm2.269 1.329c-.25 0-.439-.2-.439-.5s.2-.499.45-.499c.28 0 .459.199.459.499s-.18.5-.459.5h-.011zm-.36 5.587V3.533h.77V8.37h-.77zm2.38-2.349c.01 1.489.589 1.799 1.139 1.799.34 0 .61-.08.8-.18l.13.56c-.27.15-.68.229-1.069.229-1.149 0-1.75-.939-1.75-2.429 0-1.568.66-2.548 1.629-2.548.979 0 1.379 1.039 1.379 2.129 0 .189-.01.319-.02.439h-2.238zm1.519-.569c.01-.97-.35-1.399-.72-1.399-.5 0-.76.739-.79 1.399h1.51zm1.571-.67c0-.569-.03-.859-.04-1.249h.67l.04.579h.02c.21-.39.6-.659 1.109-.659.669 0 1.169.489 1.169 1.669V8.37h-.77V5.252c0-.58-.11-1.149-.669-1.149-.32 0-.629.27-.72.789-.03.11-.04.261-.04.431V8.37h-.77V4.782zm4.93-2.379v1.13h.93v.579h-.93v2.879c0 .64.22.799.5.799.13 0 .23-.01.31-.029l.04.59c-.14.05-.32.079-.57.079-.31 0-.58-.079-.759-.289-.2-.221-.29-.55-.29-1.22V4.112h-.589v-.579h.589v-.82l.769-.31zm48.958 5.077c.23.14.63.27.97.27.699 0 1.119-.459 1.119-1.139 0-.62-.36-1-.89-1.399-.53-.37-1.269-.999-1.269-1.869 0-1.02.72-1.769 1.779-1.769.42 0 .79.14.95.249l-.19.66a1.41 1.41 0 0 0-.8-.229c-.66 0-.969.499-.969.959 0 .67.35.939.989 1.39.81.569 1.169 1.189 1.169 1.938 0 1.159-.819 1.889-1.889 1.889-.46 0-.95-.149-1.14-.3l.171-.65zm4.31-1.459c.01 1.489.589 1.799 1.139 1.799.34 0 .61-.08.8-.18l.13.56c-.27.15-.68.229-1.069.229-1.149 0-1.75-.939-1.75-2.429 0-1.568.66-2.548 1.629-2.548.979 0 1.379 1.039 1.379 2.129 0 .189-.01.319-.02.439h-2.238zm1.519-.569c.01-.97-.35-1.399-.72-1.399-.5 0-.76.739-.79 1.399h1.51zm1.561-.67c0-.41-.03-.89-.04-1.249h.689l.04.759h.02c.16-.459.57-.839 1.02-.839.06 0 .11 0 .16.01v.789c-.05-.01-.1-.01-.16-.01-.49 0-.85.45-.93 1.01-.02.13-.03.27-.03.439V8.37h-.77V4.782zm3.14-1.249l.609 2.718c.07.33.15.76.21 1.18h.03c.05-.399.13-.81.2-1.18l.6-2.718h.76l-1.27 4.837h-.68l-1.259-4.837h.8zm3.49 2.488c.01 1.489.589 1.799 1.139 1.799.34 0 .61-.08.8-.18l.13.56c-.27.15-.68.229-1.069.229-1.149 0-1.75-.939-1.75-2.429 0-1.568.66-2.548 1.629-2.548.979 0 1.379 1.039 1.379 2.129 0 .189-.01.319-.02.439h-2.238zm1.519-.569c.01-.97-.35-1.399-.72-1.399-.5 0-.76.739-.79 1.399h1.51zm1.561-.67c0-.41-.03-.89-.04-1.249h.689l.04.759h.02c.16-.459.57-.839 1.02-.839.06 0 .11 0 .16.01v.789c-.05-.01-.1-.01-.16-.01-.49 0-.85.45-.93 1.01-.02.13-.03.27-.03.439V8.37h-.77V4.782zm-.695 100.232c0 .529.03.96.04 1.319h-.669l-.06-.51h-.02c-.14.24-.51.59-1.029.59-.84 0-1.18-.66-1.18-1.859v-3.058h.77v2.948c0 .749.12 1.319.65 1.319.45 0 .649-.42.689-.65.03-.13.04-.27.04-.43v-3.188h.77v3.519zm1.072-2.009c0-.739-.03-1.169-.04-1.509h.689l.04.609h.02c.26-.51.65-.689 1.02-.689.85 0 1.399.89 1.399 2.488 0 1.799-.74 2.509-1.489 2.509-.46 0-.72-.28-.85-.55h-.02v2.389h-.77v-5.247zm.769 1.559c0 .14.01.279.04.399.15.689.49.81.7.81.64 0 .849-.88.849-1.849 0-1.01-.24-1.85-.849-1.85-.35 0-.67.439-.71.88-.03.12-.03.239-.03.369v1.241zm6.149-5.147v5.757c0 .33.03.879.04 1.159h-.66l-.05-.6h-.04c-.15.34-.5.68-1.009.68-.82 0-1.41-.88-1.41-2.479 0-1.72.71-2.519 1.459-2.519.35 0 .689.159.879.569h.02v-2.568h.771zm-.77 3.918c0-.101 0-.21-.01-.32-.04-.5-.35-.939-.72-.939-.64 0-.859.89-.859 1.859 0 1.02.26 1.839.819 1.839.24 0 .57-.13.74-.83.03-.09.03-.199.03-.319v-1.29zm4.39 1.898c0 .37 0 .79.05 1.1h-.689l-.05-.51h-.03c-.21.37-.55.59-.959.59-.649 0-1.149-.54-1.149-1.379 0-1.22.97-1.749 2.059-1.76v-.149c0-.649-.16-1.1-.77-1.1-.3 0-.57.09-.8.25l-.17-.54c.21-.149.65-.319 1.129-.319.97 0 1.379.64 1.379 1.719v2.098zm-.75-1.409c-.4 0-1.33.08-1.33 1.13 0 .64.32.859.59.859.34 0 .62-.25.709-.729.02-.09.03-.19.03-.28v-.98zm2.691-3.458v1.13h.93v.579h-.93v2.879c0 .64.22.799.5.799.13 0 .23-.01.31-.029l.04.59c-.14.05-.32.079-.569.079-.31 0-.58-.079-.76-.289-.2-.221-.29-.55-.29-1.22v-2.809h-.589v-.579h.589v-.82l.769-.31zm2.071 3.618c.01 1.489.589 1.799 1.139 1.799.34 0 .61-.08.8-.18l.13.56c-.27.15-.68.229-1.069.229-1.149 0-1.75-.939-1.75-2.429 0-1.568.66-2.548 1.629-2.548.979 0 1.379 1.039 1.379 2.129 0 .189-.01.319-.02.439H148.6zm1.519-.569c.01-.97-.35-1.399-.72-1.399-.5 0-.76.739-.79 1.399h1.51zM8.936 96.958c0-.739-.03-1.169-.04-1.509h.689l.04.609h.02c.26-.51.65-.689 1.02-.689.85 0 1.399.89 1.399 2.488 0 1.799-.74 2.509-1.489 2.509-.46 0-.72-.28-.85-.55h-.02v2.389h-.77v-5.247zm.77 1.559c0 .14.01.279.04.399.15.689.49.81.7.81.64 0 .849-.88.849-1.849 0-1.01-.24-1.85-.849-1.85-.35 0-.67.439-.71.88-.03.12-.03.239-.03.369v1.241zm4.589 1.849c-.87 0-1.569-.79-1.569-2.488 0-1.77.79-2.509 1.619-2.509.87 0 1.56.799 1.56 2.488 0 1.879-.86 2.509-1.599 2.509h-.011zm.04-.61c.66 0 .799-1.13.799-1.89 0-.749-.14-1.889-.819-1.889-.689 0-.819 1.14-.819 1.889 0 .8.14 1.89.829 1.89h.01zm2.431-6.386h.77v6.916h-.77V93.37zm1.91 0h.77v6.916h-.77V93.37zm2.269 1.329c-.25 0-.439-.2-.439-.5s.2-.499.45-.499c.28 0 .459.199.459.499s-.18.5-.459.5h-.011zm-.36 5.587v-4.837h.77v4.837h-.77zm1.84-3.588c0-.569-.03-.859-.04-1.249h.67l.04.579h.02c.21-.39.6-.659 1.109-.659.669 0 1.169.489 1.169 1.669v3.248h-.77v-3.118c0-.58-.11-1.149-.669-1.149-.32 0-.629.27-.72.789-.03.11-.04.261-.04.431v3.048h-.77v-3.589zm6.969 2.968c0 1.27-.16 1.749-.479 2.109-.3.319-.75.51-1.29.51-.41 0-.81-.1-1.059-.24l.18-.6c.19.101.51.21.89.21.609 0 .989-.38.989-1.479v-.489h-.02c-.16.38-.52.59-.919.59-.859 0-1.419-.97-1.419-2.389 0-1.789.8-2.519 1.52-2.519.51 0 .75.34.899.619h.02l.04-.539h.689c-.01.329-.04.759-.04 1.509v2.708zm-.769-2.548c0-.13-.01-.25-.04-.36-.08-.319-.26-.729-.7-.729-.549 0-.849.75-.849 1.819 0 1.239.39 1.799.849 1.799.24 0 .54-.11.69-.689.05-.15.05-.3.05-.439v-1.401zm3.77-2.419c-.25 0-.439-.2-.439-.5s.2-.499.45-.499c.28 0 .459.199.459.499s-.18.5-.459.5h-.011zm-.36 5.587v-4.837h.77v4.837h-.77zm1.84-3.588c0-.569-.03-.859-.04-1.249h.67l.04.579h.02c.209-.39.6-.659 1.109-.659.669 0 1.169.489 1.169 1.669v3.248h-.77v-3.118c0-.58-.11-1.149-.669-1.149-.32 0-.63.27-.72.789-.03.11-.04.261-.04.431v3.048h-.77v-3.589zm4.93-2.379v1.13h.93v.579h-.93v2.879c0 .64.22.799.5.799.13 0 .23-.01.31-.029l.04.59c-.14.05-.32.079-.569.079-.31 0-.58-.079-.76-.289-.2-.221-.29-.55-.29-1.22v-2.809h-.589v-.579h.589v-.82l.769-.31zm2.07 3.618c.01 1.489.589 1.799 1.139 1.799.34 0 .61-.08.8-.18l.13.56c-.27.15-.68.229-1.07.229-1.149 0-1.749-.939-1.749-2.429 0-1.568.66-2.548 1.629-2.548.979 0 1.379 1.039 1.379 2.129 0 .189-.01.319-.02.439h-2.238zm1.519-.569c.01-.97-.35-1.399-.72-1.399-.5 0-.759.739-.79 1.399h1.51zm1.561-.67c0-.41-.03-.89-.04-1.249h.689l.04.759h.02c.16-.459.57-.839 1.02-.839.06 0 .11 0 .16.01v.789c-.05-.01-.1-.01-.16-.01-.49 0-.85.45-.93 1.01-.02.13-.03.27-.03.439v2.679h-.77v-3.588zm3.14-1.249l.609 2.718c.07.33.15.76.21 1.18h.03c.05-.399.13-.81.2-1.18l.6-2.718h.76l-1.27 4.837h-.68l-1.259-4.837h.8zm5.538 3.737c0 .37 0 .79.05 1.1h-.689l-.05-.51h-.03c-.21.37-.55.59-.959.59-.649 0-1.149-.54-1.149-1.379 0-1.22.97-1.749 2.059-1.76v-.149c0-.649-.16-1.1-.77-1.1-.3 0-.57.09-.8.25l-.17-.54c.21-.149.65-.319 1.129-.319.97 0 1.379.64 1.379 1.719v2.098zm-.749-1.409c-.4 0-1.33.08-1.33 1.13 0 .64.32.859.59.859.34 0 .62-.25.709-.729.02-.09.03-.19.03-.28v-.98zm1.841-4.407h.77v6.916h-.77V93.37zm84.94 29.321v5.757c0 .33.03.879.04 1.159h-.66l-.05-.6h-.04c-.15.34-.5.68-1.009.68-.82 0-1.41-.88-1.41-2.479 0-1.72.71-2.519 1.459-2.519.35 0 .689.159.879.569h.02v-2.568h.771zm-.769 3.918c0-.101 0-.21-.01-.32-.04-.5-.35-.939-.72-.939-.64 0-.859.89-.859 1.859 0 1.02.26 1.839.819 1.839.24 0 .57-.13.74-.83.03-.09.03-.199.03-.319v-1.29zm2.38.65c.01 1.489.589 1.799 1.139 1.799.34 0 .61-.08.8-.18l.13.56c-.27.15-.68.229-1.069.229-1.149 0-1.75-.939-1.75-2.429 0-1.568.66-2.548 1.629-2.548.979 0 1.379 1.039 1.379 2.129 0 .189-.01.319-.02.439h-2.238zm1.519-.57c.01-.97-.35-1.399-.72-1.399-.5 0-.76.739-.79 1.399h1.51zm1.571-3.998h.77v6.916h-.77v-6.916zm4.459 5.817c0 .37 0 .79.05 1.1h-.689l-.05-.51h-.03c-.21.37-.55.59-.959.59-.649 0-1.149-.54-1.149-1.379 0-1.22.97-1.749 2.059-1.76v-.149c0-.649-.16-1.1-.77-1.1-.3 0-.57.09-.8.25l-.17-.54c.21-.149.65-.319 1.129-.319.97 0 1.379.64 1.379 1.719v2.098zm-.749-1.409c-.4 0-1.33.08-1.33 1.13 0 .64.32.859.59.859.34 0 .62-.25.709-.729.02-.09.03-.19.03-.28v-.98zm2.14-2.329l.64 2.778c.09.38.13.689.2.999h.02c.05-.279.13-.64.21-.989l.57-2.788h.76l-.79 3.107c-.3 1.21-.63 2.379-1.2 3.119-.34.429-.7.649-.87.729l-.28-.65c.22-.129.47-.339.68-.609.2-.26.36-.579.44-.819.04-.11.05-.17.05-.24 0-.06 0-.119-.02-.18l-1.219-4.457h.809zM11.736 76.203c-.28.12-.77.229-1.189.229-.589 0-1.139-.159-1.589-.649-.49-.52-.819-1.449-.81-2.688.01-2.629 1.349-3.518 2.539-3.518.42 0 .75.08.95.189l-.17.66c-.18-.091-.41-.16-.77-.16-.84 0-1.749.67-1.749 2.758 0 2.079.79 2.749 1.599 2.749.26 0 .41-.04.47-.08v-2.198h-.87v-.641h1.589v3.349zm3.51-3.028h-1.689v2.528h1.919v.67h-2.688v-6.736h2.569v.67h-1.799v2.219h1.689v.649zm1.871-2.849h-1.229v-.689h3.228v.689h-1.229v6.047h-.77v-6.047zm3.801 6.446l2.149-7.216h.58l-2.149 7.216h-.58zm3.259-3.727c0-.739-.03-1.169-.04-1.509h.689l.04.609h.02c.26-.51.65-.689 1.02-.689.85 0 1.399.89 1.399 2.488 0 1.799-.74 2.509-1.489 2.509-.46 0-.72-.28-.85-.55h-.02v2.389h-.77v-5.247zm.77 1.559c0 .14.01.279.04.399.15.689.49.81.7.81.64 0 .849-.88.849-1.849 0-1.01-.24-1.85-.849-1.85-.35 0-.67.439-.71.88-.03.12-.03.239-.03.369v1.241zm4.59 1.849c-.87 0-1.569-.79-1.569-2.488 0-1.77.79-2.509 1.619-2.509.87 0 1.56.799 1.56 2.488 0 1.879-.86 2.509-1.599 2.509h-.011zm.04-.609c.66 0 .799-1.13.799-1.89 0-.749-.14-1.889-.819-1.889-.689 0-.819 1.14-.819 1.889 0 .8.14 1.89.829 1.89h.01zm2.43-6.387h.77v6.916h-.77v-6.916zm1.91 0h.77v6.916h-.77v-6.916z"/><path fill="#fddfbb" fill-rule="evenodd" d="M40.286 130.824c0 1.98-1.62 3.6-3.6 3.6H6.98a3.61 3.61 0 0 1-3.6-3.6v-9.857c0-1.98 1.62-3.6 3.6-3.6h29.706c1.98 0 3.6 1.62 3.6 3.6v9.857z" clip-rule="evenodd"/><path fill="none" stroke="#000" d="M40.286 130.824c0 1.98-1.62 3.6-3.6 3.6H6.98a3.61 3.61 0 0 1-3.6-3.6v-9.857c0-1.98 1.62-3.6 3.6-3.6h29.706c1.98 0 3.6 1.62 3.6 3.6v9.857z" stroke-linecap="round" stroke-linejoin="round"/><path d="M11.736 128.661c-.28.12-.77.229-1.189.229-.589 0-1.139-.159-1.589-.649-.49-.52-.819-1.449-.81-2.688.01-2.629 1.349-3.518 2.539-3.518.42 0 .75.08.95.189l-.17.66c-.18-.091-.41-.16-.77-.16-.84 0-1.749.67-1.749 2.758 0 2.079.79 2.749 1.599 2.749.26 0 .41-.04.47-.08v-2.198h-.87v-.641h1.589v3.349zm3.51-3.029h-1.689v2.528h1.919v.67h-2.688v-6.736h2.569v.67h-1.799v2.219h1.689v.649zm1.871-2.848h-1.229v-.689h3.228v.689h-1.229v6.047h-.77v-6.047zm3.801 6.446l2.149-7.216h.58l-2.149 7.216h-.58zm3.259-3.728c0-.739-.03-1.169-.04-1.509h.689l.04.609h.02c.26-.51.65-.689 1.02-.689.85 0 1.399.89 1.399 2.488 0 1.799-.74 2.509-1.489 2.509-.46 0-.72-.28-.85-.55h-.02v2.389h-.77v-5.247zm.77 1.56c0 .14.01.279.04.399.15.689.49.81.7.81.64 0 .849-.88.849-1.849 0-1.01-.24-1.85-.849-1.85-.35 0-.67.439-.71.88-.03.12-.03.239-.03.369v1.241zm4.59 1.849c-.87 0-1.569-.79-1.569-2.488 0-1.77.79-2.509 1.619-2.509.87 0 1.56.799 1.56 2.488 0 1.879-.86 2.509-1.599 2.509h-.011zm.04-.61c.66 0 .799-1.13.799-1.89 0-.749-.14-1.889-.819-1.889-.689 0-.819 1.14-.819 1.889 0 .8.14 1.89.829 1.89h.01zm2.43-6.386h.77v6.916h-.77v-6.916zm1.91 0h.77v6.916h-.77v-6.916z"/><path fill="none" stroke="#0071bc" d="M59.861 72.884l61.545 13.554" stroke-linecap="round" stroke-linejoin="round"/><path fill="#0071bc" d="M119.905 89.18l5.704-1.808-4.417-4.035z"/><path fill="none" stroke="#0071bc" d="M125.861 92.884l-60.482 12.804" stroke-linecap="round" stroke-linejoin="round"/><path fill="#0071bc" d="M65.614 102.57l-4.449 4 5.689 1.854z"/><path fill="none" stroke="#0071bc" d="M59.861 124.831l61.545 13.553" stroke-linecap="round" stroke-linejoin="round"/><path fill="#0071bc" d="M119.905 141.126l5.704-1.806-4.417-4.036z"/><path fill="none" stroke="#c1272d" d="M125.861 144.831l-60.482 12.803" stroke-linecap="round" stroke-linejoin="round"/><path fill="#c1272d" d="M65.614 154.517l-4.449 4 5.689 1.854z"/><path fill="none" stroke="#c1272d" stroke-width="4" d="M125.873 99.286v9.047"/><path fill="none" stroke="#000" d="M128.498 109.399c7.189 2.482-2.59 15.418 4.174 17.35-6.764 1.933 3.015 14.869-4.174 17.35" stroke-linejoin="round"/><path fill="none" stroke="#f7931e" stroke-width="4" stroke-miterlimit="10" d="M59.504 75.373v48.293" stroke-linecap="square"/><path fill="none" stroke="#000" d="M232.517 51.499V172.29" stroke-linecap="round" stroke-linejoin="round"/><path d="M229.517 171.415l2.991 5.181 2.991-5.181z"/><path fill="none" stroke="#000" d="M298.517 51.499V172.29" stroke-linecap="round" stroke-linejoin="round"/><path d="M295.517 171.415l2.991 5.181 2.991-5.181z"/><path fill="#ccc" d="M234.206 56.478v1.309l-21.144-12.113v-1.307z"/><path fill="gray" d="M234.206 56.478l14.731-8.379v1.309l-14.731 8.381z"/><path fill="#fff" d="M213.062 44.369l14.708-8.43 21.167 12.16-14.731 8.379z"/><path fill="#999" d="M250.985 29.092l.989-.563-2.061 18.966-.99.563zm-14.949 24.103v.254l-17.873-10.237v-.253z"/><path fill="#b3b3b3" d="M236.036 53.195l10.123-5.759v.254l-10.123 5.761z"/><path fill="#e6e6e6" d="M218.163 42.96l10.107-5.8 17.889 10.276-10.123 5.759zm2.57 5.477l2.903-1.666 5.134 2.95-2.906 1.654zm30.252-19.345l-2.062 18.965-21.145-12.113 2.061-18.964z"/><path fill="#0071bc" d="M248.081 46.602l-19.459-11.147 2.061-17.02 19.459 11.146-2.061 17.021z"/><path fill="#b3b3b3" d="M229.839 16.981l.971-.611 21.164 12.159-.989.563z"/><path fill="none" stroke="#000" d="M249.913 47.495l2.061-18.966L230.81 16.37l-.969.61h-.002l-2.061 18.963-.008-.004-14.707 8.429-.001-.001v1.307l21.144 12.113v.002l14.731-8.381v-1.309l-.014-.042v.001z" stroke-linecap="round" stroke-linejoin="round"/><path fill="#b3b3b3" d="M295.145 31.718v29.233l-11.484-7.059V24.653z"/><path fill="#333" d="M293.017 32.636v3.49l-8.19-5.037v-3.492zm0 11.769v3.487l-8.19-5.038v-3.488z"/><path fill="#e6e6e6" d="M293.017 40.019v1.007l-8.19-5.035v-1.013z"/><path fill="#333" d="M293.017 49.36v3.487l-8.19-5.035v-3.491zm0 4.953v3.49l-8.19-5.038v-3.489z"/><path fill="gray" d="M295.14 31.735l18.203-11.482v29.236L295.14 60.971z"/><path fill="#999" d="M283.687 24.671l18.224-11.482 11.461 7.06-18.205 11.482z"/><path fill="#009245" d="M285.103 31.567c.18.105.318.365.318.582 0 .211-.141.303-.318.191a.744.744 0 0 1-.312-.582c-.001-.216.14-.298.312-.191"/><path fill="#c1272d" d="M285.872 32.042c.178.107.316.369.316.586 0 .211-.147.299-.318.191-.176-.105-.316-.367-.316-.582 0-.216.142-.304.318-.195"/><path fill="#009245" d="M286.64 32.507a.76.76 0 0 1 .316.582c0 .217-.145.303-.318.195-.178-.107-.316-.373-.316-.588-.001-.211.14-.297.318-.189"/><path fill="#c1272d" d="M287.405 32.979c.176.107.314.367.314.584-.002.211-.143.299-.32.189-.172-.105-.314-.369-.314-.582 0-.214.144-.302.32-.191m.776.475a.74.74 0 0 1 .316.584c0 .215-.141.303-.318.191a.755.755 0 0 1-.312-.582c-.001-.212.14-.3.314-.193"/><path fill="#009245" d="M288.948 33.933c.178.106.316.367.316.582 0 .215-.141.301-.318.193-.174-.105-.316-.367-.316-.584 0-.213.142-.303.318-.191m.768.461a.75.75 0 0 1 .315.584c0 .219-.143.303-.315.193-.178-.107-.318-.369-.318-.584-.001-.213.142-.301.318-.193m.767.474c.172.105.312.365.312.582s-.141.299-.318.191a.742.742 0 0 1-.312-.582c0-.216.143-.304.318-.191"/><path fill="#c1272d" d="M285.103 32.702c.18.105.318.369.318.584 0 .213-.141.297-.318.193a.746.746 0 0 1-.312-.586c-.001-.214.14-.298.312-.191m.769.475c.178.109.316.369.316.586 0 .213-.147.303-.318.193-.176-.109-.316-.373-.316-.586 0-.215.142-.299.318-.193"/><path fill="#009245" d="M286.64 33.642c.172.103.316.373.316.582 0 .217-.145.303-.318.197-.178-.109-.316-.371-.316-.588-.001-.213.14-.299.318-.191"/><path fill="#c1272d" d="M287.405 34.114c.176.105.314.367.314.584-.002.211-.143.299-.32.193a.774.774 0 0 1-.314-.584c0-.216.144-.304.32-.193"/><path fill="#009245" d="M288.181 34.589a.742.742 0 0 1 .316.582c0 .217-.141.305-.318.197-.172-.107-.312-.371-.312-.584-.001-.215.14-.303.314-.195"/><path fill="#c1272d" d="M288.948 35.063c.178.107.316.375.316.586 0 .217-.141.301-.318.195a.757.757 0 0 1-.316-.584c0-.214.142-.302.318-.197"/><path fill="#009245" d="M289.716 35.528a.764.764 0 0 1 .315.586c0 .217-.143.303-.315.191-.178-.104-.318-.367-.318-.582-.001-.214.142-.302.318-.195"/><path fill="#c1272d" d="M290.483 35.999a.766.766 0 0 1 .312.586c0 .217-.141.299-.318.195a.758.758 0 0 1-.312-.584c0-.218.143-.3.318-.197"/><path fill="#009245" d="M291.075 40.882c.178.107.32.367.32.586 0 .211-.144.299-.32.193a.762.762 0 0 1-.316-.586c0-.215.14-.301.316-.193m.77.463a.763.763 0 0 1 .312.586c0 .215-.141.299-.312.193a.742.742 0 0 1-.318-.584c-.001-.215.14-.299.318-.195"/><path fill="#c1272d" d="M292.608 41.817c.176.107.316.367.316.584 0 .211-.141.303-.318.193a.748.748 0 0 1-.315-.584c.001-.214.144-.304.317-.193m-1.533.202c.178.105.32.367.32.586 0 .213-.144.299-.32.188-.178-.104-.316-.369-.316-.582 0-.214.14-.304.316-.192m.77.462a.772.772 0 0 1 .312.582c0 .217-.141.305-.312.193-.18-.105-.318-.369-.318-.582-.001-.216.14-.3.318-.193"/><path fill="#009245" d="M292.608 42.954c.176.103.316.365.316.582 0 .215-.141.303-.318.191a.735.735 0 0 1-.315-.582c.001-.212.144-.3.317-.191"/><path fill="none" stroke="#000" d="M313.372 20.249l-11.463-7.06-18.222 11.482-.026-.018v29.239l11.479 7.059v.02l18.201-11.482V20.268z" stroke-linecap="round" stroke-linejoin="round"/><path fill="none" stroke="#000" d="M205.812 73.438h92.705m-92.705 52h92.705" stroke-dasharray="1 1"/><path fill="#b2dec7" fill-rule="evenodd" d="M212.942 78.366c0 1.98-1.62 3.6-3.6 3.6h-31.707c-1.979 0-3.6-1.62-3.6-3.6V68.51c0-1.98 1.62-3.6 3.6-3.6h31.707c1.98 0 3.6 1.62 3.6 3.6v9.856z" clip-rule="evenodd"/><path fill="none" stroke="#000" d="M212.942 78.366c0 1.98-1.62 3.6-3.6 3.6h-31.707c-1.979 0-3.6-1.62-3.6-3.6V68.51c0-1.98 1.62-3.6 3.6-3.6h31.707c1.98 0 3.6 1.62 3.6 3.6v9.856z" stroke-linecap="round" stroke-linejoin="round"/><path d="M227.24 8.25c-.21.11-.55.18-.97.18-1.309 0-2.258-1.049-2.258-3.338 0-2.668 1.318-3.518 2.389-3.518.399 0 .699.08.829.17l-.17.649c-.16-.07-.319-.14-.669-.14-.721 0-1.57.699-1.57 2.758 0 2.069.76 2.738 1.59 2.738.289 0 .539-.069.699-.14l.13.641zm.722-6.796h.77V8.37h-.77V1.454zm2.269 1.329c-.25 0-.439-.2-.439-.5s.199-.499.449-.499c.28 0 .46.199.46.499s-.18.5-.46.5h-.01zm-.359 5.587V3.533h.77V8.37h-.77zm2.379-2.349c.01 1.489.59 1.799 1.14 1.799.34 0 .61-.08.8-.18l.13.56c-.271.15-.68.229-1.069.229-1.149 0-1.75-.939-1.75-2.429 0-1.568.66-2.548 1.63-2.548.979 0 1.38 1.039 1.38 2.129 0 .189-.011.319-.021.439h-2.24zm1.52-.569c.01-.97-.35-1.399-.72-1.399-.499 0-.76.739-.79 1.399h1.51zm1.57-.67c0-.569-.029-.859-.039-1.249h.67l.039.579h.021c.21-.39.6-.659 1.109-.659.669 0 1.169.489 1.169 1.669V8.37h-.77V5.252c0-.58-.109-1.149-.67-1.149-.319 0-.629.27-.719.789-.03.11-.041.261-.041.431V8.37h-.77V4.782zm4.93-2.379v1.13h.93v.579h-.93v2.879c0 .64.221.799.5.799.131 0 .23-.01.311-.029l.039.59a1.68 1.68 0 0 1-.569.079c-.31 0-.579-.079-.759-.289-.2-.221-.291-.55-.291-1.22V4.112h-.589v-.579h.589v-.82l.769-.31zM289.23 7.48c.23.14.63.27.97.27.699 0 1.119-.459 1.119-1.139 0-.62-.36-1-.89-1.399-.529-.37-1.27-.999-1.27-1.869 0-1.02.721-1.769 1.779-1.769.42 0 .789.14.949.249l-.189.66a1.407 1.407 0 0 0-.8-.229c-.659 0-.97.499-.97.959 0 .67.35.939.99 1.39.809.569 1.169 1.189 1.169 1.938 0 1.159-.819 1.889-1.889 1.889-.46 0-.95-.149-1.14-.3l.172-.65zm4.309-1.459c.01 1.489.589 1.799 1.14 1.799.34 0 .609-.08.799-.18l.131.56c-.271.15-.68.229-1.07.229-1.148 0-1.749-.939-1.749-2.429 0-1.568.659-2.548 1.63-2.548.979 0 1.379 1.039 1.379 2.129 0 .189-.01.319-.02.439h-2.24zm1.519-.569c.01-.97-.35-1.399-.719-1.399-.5 0-.76.739-.79 1.399h1.509zm1.561-.67c0-.41-.03-.89-.04-1.249h.689l.04.759h.021c.16-.459.569-.839 1.02-.839.06 0 .109 0 .159.01v.789c-.05-.01-.1-.01-.159-.01-.49 0-.85.45-.93 1.01-.021.13-.03.27-.03.439V8.37h-.77V4.782zm3.14-1.249l.609 2.718c.07.33.15.76.21 1.18h.03c.05-.399.13-.81.199-1.18l.6-2.718h.76l-1.27 4.837h-.68l-1.259-4.837h.801zm3.49 2.488c.01 1.489.59 1.799 1.139 1.799.34 0 .61-.08.801-.18l.129.56c-.27.15-.68.229-1.068.229-1.15 0-1.75-.939-1.75-2.429 0-1.568.66-2.548 1.629-2.548.98 0 1.38 1.039 1.38 2.129 0 .189-.011.319-.021.439h-2.239zm1.52-.569c.01-.97-.351-1.399-.721-1.399-.499 0-.76.739-.789 1.399h1.51zm1.56-.67c0-.41-.03-.89-.04-1.249h.689l.04.759h.02c.16-.459.57-.839 1.02-.839.061 0 .11 0 .16.01v.789c-.05-.01-.1-.01-.16-.01-.489 0-.85.45-.93 1.01-.02.13-.029.27-.029.439V8.37h-.77V4.782zm-.695 100.232c0 .529.031.96.041 1.319h-.67l-.061-.51h-.02c-.141.24-.51.59-1.029.59-.84 0-1.18-.66-1.18-1.859v-3.058h.77v2.948c0 .749.12 1.319.65 1.319.449 0 .648-.42.689-.65.029-.13.039-.27.039-.43v-3.188h.77v3.519zm1.072-2.009c0-.739-.03-1.169-.04-1.509h.689l.04.609h.02c.26-.51.65-.689 1.02-.689.85 0 1.4.89 1.4 2.488 0 1.799-.74 2.509-1.49 2.509-.459 0-.719-.28-.85-.55h-.02v2.389h-.77v-5.247zm.77 1.559c0 .14.01.279.04.399.149.689.489.81.7.81.639 0 .849-.88.849-1.849 0-1.01-.239-1.85-.849-1.85-.351 0-.67.439-.711.88-.029.12-.029.239-.029.369v1.241zm6.148-5.147v5.757c0 .33.03.879.04 1.159h-.659l-.051-.6h-.039c-.15.34-.5.68-1.01.68-.82 0-1.41-.88-1.41-2.479 0-1.72.711-2.519 1.46-2.519.35 0 .689.159.88.569h.02v-2.568h.769zm-.769 3.918c0-.101 0-.21-.01-.32-.04-.5-.35-.939-.72-.939-.64 0-.859.89-.859 1.859 0 1.02.26 1.839.819 1.839.24 0 .57-.13.74-.83.029-.09.029-.199.029-.319v-1.29zm4.389 1.898c0 .37 0 .79.05 1.1h-.689l-.051-.51h-.029c-.21.37-.55.59-.959.59-.65 0-1.15-.54-1.15-1.379 0-1.22.971-1.749 2.06-1.76v-.149c0-.649-.16-1.1-.77-1.1-.3 0-.569.09-.8.25l-.17-.54c.21-.149.65-.319 1.129-.319.971 0 1.38.64 1.38 1.719v2.098zm-.749-1.409c-.4 0-1.33.08-1.33 1.13 0 .64.32.859.59.859.34 0 .619-.25.709-.729.021-.09.031-.19.031-.28v-.98zm2.69-3.458v1.13h.93v.579h-.93v2.879c0 .64.221.799.5.799.131 0 .23-.01.311-.029l.039.59c-.139.05-.319.079-.568.079-.311 0-.58-.079-.76-.289-.201-.221-.291-.55-.291-1.22v-2.809h-.589v-.579h.589v-.82l.769-.31zm2.071 3.618c.01 1.489.589 1.799 1.14 1.799.34 0 .609-.08.799-.18l.131.56c-.271.15-.68.229-1.07.229-1.148 0-1.749-.939-1.749-2.429 0-1.568.659-2.548 1.63-2.548.979 0 1.379 1.039 1.379 2.129 0 .189-.01.319-.02.439h-2.24zm1.518-.569c.01-.97-.35-1.399-.719-1.399-.5 0-.76.739-.79 1.399h1.509zm-105.493-.037c-.25 0-.439-.2-.439-.5s.2-.499.45-.499c.279 0 .459.199.459.499s-.18.5-.459.5h-.011zm-.36 5.587v-4.837h.77v4.837h-.77zm4.759-6.916v5.757c0 .33.03.879.04 1.159h-.66l-.049-.6h-.041c-.149.34-.5.68-1.009.68-.819 0-1.409-.88-1.409-2.479 0-1.72.709-2.519 1.459-2.519.35 0 .689.159.879.569h.021v-2.568h.769zm-.77 3.918c0-.101 0-.21-.01-.32-.04-.5-.351-.939-.72-.939-.64 0-.859.89-.859 1.859 0 1.02.26 1.839.819 1.839.239 0 .569-.13.739-.83.03-.09.03-.199.03-.319v-1.29zm1.841-3.918h.77v6.916h-.77v-6.916zm2.45 4.567c.01 1.489.589 1.799 1.14 1.799.34 0 .609-.08.799-.18l.131.56c-.271.15-.68.229-1.07.229-1.148 0-1.749-.939-1.749-2.429 0-1.568.659-2.548 1.63-2.548.979 0 1.379 1.039 1.379 2.129 0 .189-.01.319-.02.439h-2.24zm1.519-.569c.01-.97-.35-1.399-.719-1.399-.5 0-.76.739-.79 1.399h1.509zm-47.093-29.844a3.4 3.4 0 0 1-1.188.229c-.59 0-1.141-.159-1.59-.649-.49-.52-.819-1.449-.81-2.688.01-2.629 1.349-3.518 2.538-3.518.42 0 .75.08.95.189l-.17.66c-.181-.091-.41-.16-.77-.16-.84 0-1.749.67-1.749 2.758 0 2.079.789 2.749 1.6 2.749.26 0 .409-.04.469-.08v-2.198h-.869v-.641h1.589v3.349zm3.511-3.028h-1.689v2.528h1.919v.67h-2.688v-6.736h2.568v.67h-1.799v2.219h1.689v.649zm1.871-2.849h-1.23v-.689h3.229v.689h-1.229v6.047h-.77v-6.047zm3.801 6.446l2.148-7.216h.58l-2.149 7.216h-.579zm5.627-.519c-.17.101-.459.18-.799.18-1.06 0-1.77-.85-1.77-2.448 0-1.39.699-2.519 1.909-2.519.26 0 .54.07.68.16l-.149.619a1.265 1.265 0 0 0-.551-.13c-.779 0-1.119.92-1.119 1.869 0 1.129.43 1.809 1.14 1.809.2 0 .38-.04.55-.13l.109.59zm1.96.2c-.869 0-1.569-.79-1.569-2.488 0-1.77.79-2.509 1.619-2.509.87 0 1.56.799 1.56 2.488 0 1.879-.859 2.509-1.6 2.509h-.01zm.041-.609c.659 0 .8-1.13.8-1.89 0-.749-.141-1.889-.82-1.889-.689 0-.818 1.14-.818 1.889 0 .8.139 1.89.828 1.89h.01zm2.43-3.059c0-.569-.029-.859-.04-1.249h.68l.04.589h.02c.211-.39.57-.669 1.08-.669.449 0 .84.21 1.02.729h.02c.131-.24.301-.43.471-.55.199-.12.419-.18.669-.18.659 0 1.169.47 1.169 1.709v3.208h-.77v-3.038c0-.63-.09-1.239-.67-1.239-.319 0-.6.27-.709.729-.029.12-.029.27-.029.43v3.118h-.77v-3.179c0-.529-.091-1.099-.66-1.099-.32 0-.63.27-.72.789-.021.12-.03.26-.03.41v3.078h-.77v-3.586zm6.74 1.239c.01 1.489.59 1.799 1.139 1.799.34 0 .61-.08.801-.18l.129.56c-.27.15-.68.229-1.068.229-1.15 0-1.75-.939-1.75-2.429 0-1.568.66-2.548 1.629-2.548.98 0 1.38 1.039 1.38 2.129 0 .189-.011.319-.021.439h-2.239zm1.52-.569c.01-.97-.351-1.399-.721-1.399-.499 0-.76.739-.789 1.399h1.51zm2.51-3.049v1.13h.93v.579h-.93v2.879c0 .64.221.799.5.799.13 0 .23-.01.31-.029l.04.59c-.14.05-.32.079-.57.079-.309 0-.579-.079-.759-.289-.2-.221-.29-.55-.29-1.22v-2.809h-.59v-.579h.59v-.82l.769-.31z"/><path fill="#b2dec7" fill-rule="evenodd" d="M212.942 130.823c0 1.98-1.62 3.6-3.6 3.6h-31.707c-1.979 0-3.6-1.62-3.6-3.6v-9.856c0-1.98 1.62-3.6 3.6-3.6h31.707c1.98 0 3.6 1.62 3.6 3.6v9.856z" clip-rule="evenodd"/><path fill="none" stroke="#000" d="M212.942 130.823c0 1.98-1.62 3.6-3.6 3.6h-31.707c-1.979 0-3.6-1.62-3.6-3.6v-9.856c0-1.98 1.62-3.6 3.6-3.6h31.707c1.98 0 3.6 1.62 3.6 3.6v9.856z" stroke-linecap="round" stroke-linejoin="round"/><path d="M179.627 128.661a3.4 3.4 0 0 1-1.188.229c-.59 0-1.141-.159-1.59-.649-.49-.52-.819-1.449-.81-2.688.01-2.629 1.349-3.518 2.538-3.518.42 0 .75.08.95.189l-.17.66c-.181-.091-.41-.16-.77-.16-.84 0-1.749.67-1.749 2.758 0 2.079.789 2.749 1.6 2.749.26 0 .409-.04.469-.08v-2.198h-.869v-.641h1.589v3.349zm3.511-3.029h-1.689v2.528h1.919v.67h-2.688v-6.736h2.568v.67h-1.799v2.219h1.689v.649zm1.871-2.848h-1.23v-.689h3.229v.689h-1.229v6.047h-.77v-6.047zm3.801 6.446l2.148-7.216h.58l-2.149 7.216h-.579zm5.627-.52c-.17.101-.459.18-.799.18-1.06 0-1.77-.85-1.77-2.448 0-1.39.699-2.519 1.909-2.519.26 0 .54.07.68.16l-.149.619a1.265 1.265 0 0 0-.551-.13c-.779 0-1.119.92-1.119 1.869 0 1.129.43 1.809 1.14 1.809.2 0 .38-.04.55-.13l.109.59zm1.96.201c-.869 0-1.569-.79-1.569-2.488 0-1.77.79-2.509 1.619-2.509.87 0 1.56.799 1.56 2.488 0 1.879-.859 2.509-1.6 2.509h-.01zm.041-.61c.659 0 .8-1.13.8-1.89 0-.749-.141-1.889-.82-1.889-.689 0-.818 1.14-.818 1.889 0 .8.139 1.89.828 1.89h.01zm2.43-3.058c0-.569-.029-.859-.04-1.249h.68l.04.589h.02c.211-.39.57-.669 1.08-.669.449 0 .84.21 1.02.729h.02c.131-.24.301-.43.471-.55.199-.12.419-.18.669-.18.659 0 1.169.47 1.169 1.709v3.208h-.77v-3.038c0-.63-.09-1.239-.67-1.239-.319 0-.6.27-.709.729-.029.12-.029.27-.029.43v3.118h-.77v-3.179c0-.529-.091-1.099-.66-1.099-.32 0-.63.27-.72.789-.021.12-.03.26-.03.41v3.078h-.77v-3.586zm6.74 1.239c.01 1.489.59 1.799 1.139 1.799.34 0 .61-.08.801-.18l.129.56c-.27.15-.68.229-1.068.229-1.15 0-1.75-.939-1.75-2.429 0-1.568.66-2.548 1.629-2.548.98 0 1.38 1.039 1.38 2.129 0 .189-.011.319-.021.439h-2.239zm1.52-.569c.01-.97-.351-1.399-.721-1.399-.499 0-.76.739-.789 1.399h1.51zm2.51-3.049v1.13h.93v.579h-.93v2.879c0 .64.221.799.5.799.13 0 .23-.01.31-.029l.04.59c-.14.05-.32.079-.57.079-.309 0-.579-.079-.759-.289-.2-.221-.29-.55-.29-1.22v-2.809h-.59v-.579h.59v-.82l.769-.31z"/><path fill="none" stroke="#0071bc" d="M232.517 72.884l61.545 13.554" stroke-linecap="round" stroke-linejoin="round"/><path fill="#0071bc" d="M292.562 89.18l5.703-1.808-4.416-4.035z"/><path fill="none" stroke="#0071bc" d="M232.517 124.831l61.545 13.553" stroke-linecap="round" stroke-linejoin="round"/><path fill="#0071bc" d="M292.562 141.126l5.703-1.806-4.416-4.036z"/><path fill="none" stroke="#c1272d" d="M298.517 108.965l-60.481 12.804" stroke-linecap="round" stroke-linejoin="round"/><path fill="#c1272d" d="M238.27 118.651l-4.449 4 5.689 1.854z"/><path fill="none" stroke="#c1272d" stroke-width="4" d="M298.529 99.286v9.047"/><path fill="none" stroke="#009245" stroke-width="4" stroke-miterlimit="10" d="M232.161 92.884v26.782m0 25.968v20.783" stroke-linecap="square"/></svg>