<?xml version="1.0" encoding="iso-8859-1"?>
<!-- Generator: Adobe Illustrator 19.0.0, SVG Export Plug-In . SVG Version: 6.00 Build 0)  -->
<svg xmlns="http://www.w3.org/2000/svg" xmlns:xlink="http://www.w3.org/1999/xlink" version="1.1" id="Capa_1" x="0px" y="0px" viewBox="0 0 512 512" style="enable-background:new 0 0 512 512;" xml:space="preserve" width="512" height="512">
<g>
	<g>
		<polygon style="fill:#ECEAEC;" points="296.081,139.766 215.919,139.766 207.903,412.315 304.097,412.315   "/>
		<path style="fill:#DAD8DB;" d="M264.062,163.815h32.726l-0.707-24.048h-80.161l-8.016,272.548h32.536l-0.426-224.406    C239.988,174.609,250.762,163.815,264.062,163.815z"/>
		<polygon style="fill:#FF8086;" points="207.903,412.315 304.097,412.315 300.796,300.089 211.204,300.089   "/>
		<polygon style="fill:#E5646E;" points="211.204,300.089 207.903,412.315 240.439,412.315 240.226,300.089   "/>
		<path style="fill:#F4DBB3;" d="M296.851,373.819c-10.616-6.066-23.419-6.955-34.771-2.414l-78.893,32.893l263.981,55.416    L296.851,373.819z"/>
		<path style="fill:#EAC89F;" d="M181.346,386.503c-13.383-3.885-27.825-0.54-38.136,8.834l-69.362,63.056l334.458-5.998    L181.346,386.503z"/>
		<path style="fill:#C8C5C9;" d="M256,67.621c-13.282,0-24.048,10.767-24.048,24.048v8.016h48.097v-8.016    C280.048,78.388,269.282,67.621,256,67.621z"/>
		<polygon style="fill:#FF8086;" points="298.438,219.927 296.081,139.766 215.919,139.766 213.562,219.927   "/>
		<path style="fill:#E5646E;" d="M240.074,219.927l-0.061-32.019c-0.025-13.299,10.749-24.094,24.048-24.094h32.726l-0.707-24.048    h-80.161l-2.358,80.161H240.074z"/>
		<path style="fill:#B6B1B7;" d="M256,67.621L256,67.621l0,32.065h-24.048v-8.016C231.952,78.388,242.718,67.621,256,67.621z"/>
		<rect x="231.952" y="99.685" style="fill:#FFFFFF;" width="48.097" height="40.081"/>
	</g>
	<g>
		<path d="M504.5,444.895c-13.617,0-20.821,2.321-27.178,4.37c-6.073,1.957-11.317,3.646-22.577,3.646    c-1.644,0-3.146-0.04-4.555-0.107l-139.312-79.607l-7.06-225.931h0.278c4.142,0,7.5-3.358,7.5-7.5s-3.358-7.5-7.5-7.5h-16.548    v-25.081h0.516c4.142,0,7.5-3.358,7.5-7.5s-3.358-7.5-7.5-7.5h-0.516v-0.516c0-14.812-10.262-27.265-24.048-30.64v-9.44    c0-4.142-3.358-7.5-7.5-7.5s-7.5,3.358-7.5,7.5v9.44c-13.786,3.375-24.048,15.829-24.048,30.64v0.516h-0.516    c-4.142,0-7.5,3.358-7.5,7.5s3.358,7.5,7.5,7.5h0.516v25.081h-16.548c-4.142,0-7.5,3.358-7.5,7.5s3.358,7.5,7.5,7.5h0.278    l-7.409,237.068l-17.336-5.033c-15.772-4.579-33.119-0.561-45.272,10.487l-68.34,62.128c-3.362,0.611-7.339,0.995-12.68,0.995    c-11.23,0-16.461-1.689-22.518-3.645c-6.344-2.049-13.535-4.371-27.127-4.371c-4.142,0-7.5,3.358-7.5,7.5s3.358,7.5,7.5,7.5    c11.23,0,16.461,1.689,22.518,3.645c6.344,2.049,13.535,4.371,27.127,4.371c13.598,0,20.792-2.322,27.139-4.371    c6.06-1.956,11.294-3.646,22.531-3.646c11.243,0,16.479,1.689,22.543,3.646c6.349,2.048,13.545,4.37,27.148,4.37    s20.799-2.322,27.148-4.37c6.063-1.957,11.3-3.646,22.543-3.646s16.479,1.689,22.543,3.646c6.349,2.049,13.545,4.371,27.148,4.371    c13.606,0,20.804-2.322,27.155-4.37c6.065-1.957,11.304-3.646,22.55-3.646c11.239,0,16.474,1.689,22.536,3.646    c6.348,2.049,13.542,4.371,27.142,4.371c13.609,0,20.81-2.322,27.162-4.37c6.067-1.957,11.308-3.646,22.559-3.646    c11.26,0,16.505,1.69,22.577,3.646c6.356,2.048,13.561,4.37,27.178,4.37s20.821-2.321,27.178-4.37    c6.072-1.957,11.317-3.646,22.577-3.646c4.142,0,7.5-3.358,7.5-7.5S508.642,444.895,504.5,444.895z M218.178,307.589h75.643    l1.789,57.252c-11.532-4.936-24.491-5.13-36.316-0.399l-43.436,17.374L218.178,307.589z M239.452,91.669    c0-9.125,7.423-16.548,16.548-16.548s16.548,7.423,16.548,16.548v0.516h-33.097V91.669z M239.452,107.186h33.097v25.081h-33.097    V107.186z M288.811,147.266l2.036,65.161h-2.783c-4.142,0-7.5,3.358-7.5,7.5s3.358,7.5,7.5,7.5h3.252l2.036,65.162h-74.705    l2.036-65.162H256c4.142,0,7.5-3.358,7.5-7.5s-3.358-7.5-7.5-7.5h-34.848l2.036-65.161H288.811z M332.734,449.266    c-6.348-2.049-13.542-4.371-27.142-4.371c-13.605,0-20.804,2.322-27.154,4.37c-6.065,1.957-11.304,3.646-22.55,3.646    c-11.243,0-16.479-1.689-22.543-3.646c-6.349-2.049-13.546-4.371-27.148-4.371c-13.603,0-20.799,2.322-27.148,4.371    c-6.063,1.956-11.3,3.646-22.542,3.646s-16.479-1.689-22.542-3.646c-6.349-2.049-13.545-4.371-27.148-4.371    c-2.643,0-5.038,0.09-7.239,0.246l48.679-44.254c8.322-7.565,20.201-10.315,31-7.181l57.052,16.563    c3.98,1.154,8.139-1.134,9.294-5.111c1.155-3.978-1.134-8.139-5.111-9.294l-11.22-3.257l35.596-14.238    c9.282-3.712,19.583-2.998,28.264,1.962l109.624,62.642l-128.849-37.407c-3.978-1.154-8.139,1.133-9.293,5.112    c-1.155,3.978,1.134,8.139,5.112,9.293l104.649,30.382c-4.849,1.455-10.015,2.558-19.103,2.558    C344.03,452.911,338.795,451.222,332.734,449.266z"/>
		<path d="M127.742,123.218h56.113c4.142,0,7.5-3.358,7.5-7.5s-3.358-7.5-7.5-7.5h-56.113c-4.142,0-7.5,3.358-7.5,7.5    S123.6,123.218,127.742,123.218z"/>
		<path d="M157.435,82.752l16.041,5.347c0.787,0.262,1.586,0.387,2.373,0.387c3.14,0,6.066-1.988,7.114-5.13    c1.31-3.93-0.814-8.177-4.744-9.487l-16.041-5.347c-3.928-1.31-8.177,0.814-9.487,4.744    C151.382,77.195,153.505,81.442,157.435,82.752z"/>
		<path d="M173.467,143.339l-16.032,5.344c-3.93,1.31-6.053,5.558-4.744,9.487c1.048,3.143,3.974,5.13,7.114,5.13    c0.786,0,1.586-0.125,2.373-0.387l16.032-5.344c3.93-1.31,6.053-5.558,4.744-9.487    C181.644,144.153,177.396,142.029,173.467,143.339z"/>
		<path d="M328.145,123.218h56.113c4.142,0,7.5-3.358,7.5-7.5s-3.358-7.5-7.5-7.5h-56.113c-4.142,0-7.5,3.358-7.5,7.5    S324.003,123.218,328.145,123.218z"/>
		<path d="M336.152,88.486c0.786,0,1.586-0.125,2.373-0.387l16.041-5.347c3.93-1.31,6.053-5.557,4.744-9.487    c-1.311-3.93-5.558-6.054-9.487-4.744l-16.041,5.347c-3.93,1.31-6.053,5.557-4.744,9.487    C330.085,86.499,333.011,88.486,336.152,88.486z"/>
		<path d="M338.533,143.339c-3.93-1.31-8.176,0.814-9.487,4.744c-1.31,3.929,0.814,8.177,4.744,9.487l16.032,5.344    c0.787,0.262,1.586,0.387,2.373,0.387c3.14,0,6.066-1.987,7.114-5.13c1.31-3.929-0.814-8.177-4.744-9.487L338.533,143.339z"/>
	</g>
</g>















</svg>
